#!OML:ASF E:\Mandelcareful walks\Project 1\Capture day 1\Session 1\Subject1.ASF
:FULLY-SPECIFIED
:DEGREES
134
root -10.9902 2.10912 0.922779 164.701 10.4235 -97.3623
lowerback 26.2041 2.76186 -2.26409
upperback 8.85058 1.4824 3.1012
thorax -4.85174 -0.110082 4.3256
lowerneck -16.4174 2.68577 1.3762
upperneck 42.1066 5.23044 6.9753
head 18.4516 4.70807 4.57433
rclavicle 7.95139e-015 -1.59028e-014
rhumerus -12.3003 50.5111 -98.2722
rradius 99.8886
rwrist 0.2371
rhand -10.321 -13.7478
rfingers 7.12502
rthumb 15.6745 -43.1329
lclavicle 7.95139e-015 -1.59028e-014
lhumerus 102.73 -38.2712 -42.1244
lradius 31.0891
lwrist 3.72398
lhand 1.4162 4.9771
lfingers 7.12502
lthumb 26.9461 33.0758
rfemur -21.0806 -19.3621 19.3389
rtibia 80.0781
rfoot 16.1617 -3.58499
rtoes -5.79697
lfemur -33.8131 -16.6453 -14.4402
ltibia 30.1644
lfoot 18.232 19.5829
ltoes 7.38803
135
root -10.9973 2.08958 0.932076 164.79 10.6106 -97.8095
lowerback 26.2599 2.91853 -2.38117
upperback 9.08527 1.57807 3.1802
thorax -4.63359 -0.109192 4.45224
lowerneck -16.1156 2.67596 1.72507
upperneck 42.2642 5.00291 7.44383
head 18.4784 4.77912 4.70523
rclavicle -4.21423e-014 -2.38542e-013
rhumerus -11.6777 50.7102 -97.2497
rradius 100.35
rwrist -0.0164981
rhand -10.1095 -13.8658
rfingers 7.12502
rthumb 15.8782 -43.2348
lclavicle -4.21423e-014 -2.38542e-013
lhumerus 101.667 -38.6345 -41.163
lradius 30.9828
lwrist 2.51834
lhand 2.11788 4.61334
lfingers 7.12502
lthumb 27.6173 32.6065
rfemur -21.2879 -19.43 18.7267
rtibia 80.0261
rfoot 16.4655 -3.39917
rtoes -5.8556
lfemur -34.1443 -16.9552 -14.7019
ltibia 30.5522
lfoot 18.0248 20.0586
ltoes 7.40903
136
root -10.9291 2.04368 0.95463 165.928 10.7925 -92.3628
lowerback 26.407 1.77081 3.59259
upperback 9.25481 1.44858 4.86815
thorax -4.33249 -0.264139 2.91457
lowerneck -15.917 2.57299 1.76983
upperneck 42.4623 4.72476 7.92403
head 18.5482 4.77584 4.89692
rclavicle 1.59028e-015 6.67916e-014
rhumerus -11.109 50.8856 -95.8173
rradius 100.721
rwrist -0.0588677
rhand -10.1787 -13.5436
rfingers 7.12502
rthumb 15.8115 -42.9179
lclavicle 1.59028e-015 6.67916e-014
lhumerus 100.881 -38.5629 -40.3967
lradius 30.9573
lwrist 1.74525
lhand 2.49296 4.4629
lfingers 7.12502
lthumb 27.9759 32.3982
rfemur -21.2492 -20.5258 24.4982
rtibia 79.5866
rfoot 16.4933 -3.81976
rtoes -7.54353
lfemur -35.3453 -17.0587 -9.25346
ltibia 31.0816
lfoot 18.9513 18.6888
ltoes 6.22486
137
root -10.9322 2.02825 0.969923 166.319 10.8855 -92.7463
lowerback 26.236 1.91664 3.5668
upperback 9.42596 1.55278 4.9897
thorax -4.06583 -0.244078 3.03041
lowerneck -15.7299 2.51603 2.21904
upperneck 42.817 4.55395 8.09169
head 18.7452 4.84184 4.9146
rclavicle 1.59028e-015 7.31528e-014
rhumerus -10.6686 51.0585 -94.9843
rradius 100.915
rwrist 0.00333282
rhand -10.1658 -13.2692
rfingers 7.12502
rthumb 15.824 -42.6425
lclavicle 1.59028e-015 7.31528e-014
lhumerus 100.15 -38.1959 -40.1754
lradius 31.032
lwrist 1.49742
lhand 3.13251 4.42675
lfingers 7.12502
lthumb 28.5872 32.2607
rfemur -21.9283 -20.7582 24.1351
rtibia 79.7342
rfoot 16.6659 -3.64034
rtoes -8.36931
lfemur -36.0157 -17.1162 -9.39417
ltibia 31.3175
lfoot 19.1037 18.7951
ltoes 6.26032
138
root -10.9572 2.05607 0.975632 165.726 11.322 -94.6743
lowerback 26.6997 2.70844 1.57058
upperback 9.85796 1.95284 4.79224
thorax -3.91132 -0.126602 3.84464
lowerneck -15.4959 2.44501 2.58952
upperneck 42.9989 4.25228 8.47443
head 18.8222 4.87 4.99969
rclavicle 1.27222e-014 8.26944e-014
rhumerus -10.1232 51.1037 -94.2048
rradius 101.186
rwrist -0.183958
rhand -9.52725 -13.5572
rfingers 7.12502
rthumb 16.4388 -42.8807
lclavicle 1.27222e-014 8.26944e-014
lhumerus 98.9581 -37.8791 -39.4246
lradius 31.081
lwrist 1.14476
lhand 3.65362 4.22775
lfingers 7.12502
lthumb 29.0849 31.9769
rfemur -21.7542 -20.3548 22.0947
rtibia 79.8916
rfoot 16.4935 -3.86305
rtoes -6.78696
lfemur -35.5595 -16.9364 -11.0722
ltibia 31.6093
lfoot 18.5718 19.4128
ltoes 6.86992
139
root -10.9662 2.06283 0.985076 165.226 11.7068 -94.9428
lowerback 27.6444 3.09098 1.43204
upperback 10.1916 2.25185 5.04726
thorax -4.01988 -0.0829759 4.12553
lowerneck -15.4858 2.3359 2.48431
upperneck 43.5229 3.91396 9.39374
head 19.1498 4.90783 5.50019
rclavicle 2.78299e-015 -6.99722e-014
rhumerus -9.74152 51.0767 -93.2878
rradius 101.395
rwrist -0.471991
rhand -8.60079 -13.555
rfingers 7.12502
rthumb 17.3307 -42.8023
lclavicle 2.78299e-015 -6.99722e-014
lhumerus 97.2366 -37.9317 -37.5151
lradius 31.0726
lwrist 0.283812
lhand 3.66612 3.93877
lfingers 7.12502
lthumb 29.0969 31.6858
rfemur -21.2609 -20.3439 21.6228
rtibia 79.9863
rfoot 16.3485 -3.9235
rtoes -5.87512
lfemur -34.7204 -16.7961 -11.2623
ltibia 31.1437
lfoot 18.2332 19.7751
ltoes 7.14965
140
root -10.9699 2.05962 0.995044 165.319 12.0943 -94.6567
lowerback 28.1431 3.25398 1.93713
upperback 10.3334 2.48669 5.3904
thorax -4.09441 -0.0382155 4.14925
lowerneck -15.3596 2.28781 2.35282
upperneck 44.099 3.75749 10.2978
head 19.4767 5.02196 6.05074
rclavicle 3.69739e-014 9.85972e-014
rhumerus -9.69555 51.3524 -92.6895
rradius 101.289
rwrist 0.128105
rhand -9.26419 -13.7966
rfingers 7.12502
rthumb 16.6921 -43.099
lclavicle 3.69739e-014 9.85972e-014
lhumerus 95.2985 -38.2025 -35.0063
lradius 31.0276
lwrist -0.880793
lhand 3.35705 3.60481
lfingers 7.12502
lthumb 28.8017 31.4025
rfemur -21.323 -20.4291 21.9221
rtibia 79.9811
rfoot 16.5325 -3.59315
rtoes -7.07037
lfemur -34.5243 -16.6439 -10.7809
ltibia 30.7454
lfoot 17.8755 19.972
ltoes 7.25374
141
root -10.9745 2.0436 0.998317 165.227 12.0143 -94.8573
lowerback 28.5356 3.30532 2.24406
upperback 10.5599 2.52373 5.5286
thorax -4.01189 -0.0774153 4.11752
lowerneck -14.8886 2.1674 2.66701
upperneck 44.1778 3.55177 10.3359
head 19.4264 5.0227 5.96301
rclavicle 2.8625e-014 4.77083e-014
rhumerus -9.4348 51.3813 -91.9494
rradius 101.031
rwrist 0.241041
rhand -9.52414 -13.6222
rfingers 7.12502
rthumb 16.4419 -42.9454
lclavicle 2.8625e-014 4.77083e-014
lhumerus 93.3711 -38.2813 -32.4623
lradius 31.0886
lwrist -2.29307
lhand 3.39466 3.10312
lfingers 7.12502
lthumb 28.8376 30.8947
rfemur -21.1101 -20.9617 21.3253
rtibia 79.8946
rfoot 16.6911 -3.11192
rtoes -8.00164
lfemur -34.3899 -17.0076 -11.0109
ltibia 30.604
lfoot 17.9239 20.1663
ltoes 7.36062
142
root -10.9735 2.01768 0.998452 165.066 11.8075 -94.6941
lowerback 28.9587 3.17777 3.05996
upperback 10.899 2.41989 5.69032
thorax -3.77465 -0.196192 3.86271
lowerneck -14.3026 2.00479 3.16591
upperneck 44.0544 3.21773 10.2284
head 19.2324 4.96733 5.70181
rclavicle -8.78628e-014 -3.81667e-013
rhumerus -8.73725 51.3811 -90.8657
rradius 100.486
rwrist 0.52336
rhand -9.53166 -13.0199
rfingers 7.12502
rthumb 16.4346 -42.3438
lclavicle -8.78628e-014 -3.81667e-013
lhumerus 91.4414 -38.0743 -30.2522
lradius 31.341
lwrist -3.87818
lhand 3.94901 2.6812
lfingers 7.12502
lthumb 29.367 30.3812
rfemur -20.5885 -21.6594 20.9079
rtibia 79.7255
rfoot 16.5662 -3.16951
rtoes -7.2388
lfemur -34.1556 -17.4654 -11.0152
ltibia 30.4003
lfoot 18.1981 20.2571
ltoes 7.15775
143
root -10.9737 2.00114 1.00314 165.033 11.8319 -94.4238
lowerback 29.4604 3.11308 3.85735
upperback 11.1775 2.39966 5.9115
thorax -3.64444 -0.280032 3.66229
lowerneck -13.942 1.88212 3.53354
upperneck 44.1997 2.98442 10.2828
head 19.2609 4.96621 5.62846
rclavicle 2.06736e-014 1.27222e-014
rhumerus -7.87049 51.5075 -89.6378
rradius 99.7345
rwrist 0.719924
rhand -9.44928 -12.4999
rfingers 7.12502
rthumb 16.5139 -41.8172
lclavicle 2.06736e-014 1.27222e-014
lhumerus 89.613 -37.7806 -28.3835
lradius 31.6653
lwrist -5.1652
lhand 4.09293 2.44357
lfingers 7.12502
lthumb 29.5044 30.1194
rfemur -20.256 -22.0949 20.8017
rtibia 79.5515
rfoot 16.4189 -3.47693
rtoes -6.40996
lfemur -34.0652 -17.6417 -10.7642
ltibia 30.2608
lfoot 18.3625 20.3901
ltoes 6.91604
144
root -10.9778 2.00008 1.01312 164.294 11.6625 -95.1809
lowerback 30.6643 3.30172 3.48593
upperback 11.4702 2.42056 5.97382
thorax -3.88408 -0.364432 3.95112
lowerneck -13.4292 1.8742 3.1784
upperneck 43.8467 2.74023 11.2729
head 18.8799 4.96679 6.0523
rclavicle -6.87795e-014 -1.08139e-013
rhumerus -7.12433 51.6163 -88.4594
rradius 99.1395
rwrist 0.536212
rhand -9.18901 -13.8664
rfingers 7.12502
rthumb 16.7645 -43.1626
lclavicle -6.87795e-014 -1.08139e-013
lhumerus 87.9242 -37.5468 -26.6682
lradius 31.9648
lwrist -5.99811
lhand 3.4781 2.33948
lfingers 7.12502
lthumb 28.9173 30.1174
rfemur -19.4224 -22.6322 19.3335
rtibia 79.5687
rfoot 16.641 -2.93303
rtoes -7.5185
lfemur -33.3627 -17.9862 -11.7135
ltibia 30.2135
lfoot 18.5262 20.6705
ltoes 7.16911
145
root -10.9813 1.9961 1.00581 164.39 11.6836 -94.7999
lowerback 30.9769 3.20911 4.21445
upperback 11.6717 2.38536 6.26953
thorax -3.75289 -0.446723 3.8804
lowerneck -13.3311 1.80531 3.20068
upperneck 44.2496 2.68127 11.491
head 19.1177 5.00968 6.21924
rclavicle -2.38542e-015 -1.30403e-013
rhumerus -6.26893 51.7183 -87.2502
rradius 98.5702
rwrist 0.716682
rhand -8.43817 -16.4417
rfingers 7.12502
rthumb 17.4872 -45.6752
lclavicle -2.38542e-015 -1.30403e-013
lhumerus 85.9005 -37.5377 -24.2627
lradius 31.9623
lwrist -6.86352
lhand 3.04613 2.07354
lfingers 7.12502
lthumb 28.5046 29.9214
rfemur -19.2125 -23.2389 19.3924
rtibia 79.5584
rfoot 16.8155 -2.31486
rtoes -9.16313
lfemur -33.4903 -18.0982 -11.2883
ltibia 30.3663
lfoot 18.8174 20.5442
ltoes 7.12861
146
root -10.97 1.99664 1.02034 164.326 12.0169 -94.9784
lowerback 31.5654 3.37778 4.43369
upperback 11.9112 2.51554 6.39381
thorax -3.73281 -0.468093 3.85904
lowerneck -13.7173 1.63253 3.55709
upperneck 45.5394 2.76435 10.9962
head 20.1193 5.08165 6.1976
rclavicle -3.37934e-015 5.725e-014
rhumerus -5.17656 51.7472 -85.9595
rradius 97.7281
rwrist 1.35954
rhand -7.81647 -16.4875
rfingers 7.12502
rthumb 18.0854 -45.6667
lclavicle -3.37934e-015 5.725e-014
lhumerus 83.3768 -37.5995 -20.8095
lradius 31.6323
lwrist -8.34491
lhand 2.80282 1.38155
lfingers 7.12502
lthumb 28.2721 29.2682
rfemur -19.2906 -23.3737 19.109
rtibia 79.7382
rfoot 16.5087 -2.57556
rtoes -8.44762
lfemur -33.5947 -17.7438 -11.2866
ltibia 30.5598
lfoot 18.8739 20.4942
ltoes 7.23481
147
root -10.9735 1.99397 1.01407 164.601 12.0782 -94.6631
lowerback 31.6422 3.3231 5.3701
upperback 12.1323 2.55174 6.63522
thorax -3.45004 -0.513393 3.5831
lowerneck -13.6975 1.60233 3.30509
upperneck 45.9174 2.71962 11.6247
head 20.3693 5.14291 6.64674
rclavicle 2.4202e-014 -3.81667e-014
rhumerus -4.14033 51.5386 -84.5079
rradius 96.8851
rwrist 1.77873
rhand -7.59088 -14.6029
rfingers 7.12502
rthumb 18.3025 -43.7619
lclavicle 2.4202e-014 -3.81667e-014
lhumerus 81.4869 -37.3885 -18.1225
lradius 31.5117
lwrist -9.32201
lhand 2.15812 0.502194
lfingers 7.12502
lthumb 27.6558 28.4892
rfemur -19.3151 -23.8628 19.2289
rtibia 79.6978
rfoot 16.4007 -2.40392
rtoes -8.81367
lfemur -34.026 -17.6095 -10.9096
ltibia 30.9531
lfoot 18.6993 20.3626
ltoes 7.20789
